<?xml version="1.0" encoding="utf-8"?>
<!-- Generator: Adobe Illustrator 24.0.2, SVG Export Plug-In . SVG Version: 6.00 Build 0)  -->
<svg version="1.1" id="Layer_1" xmlns="http://www.w3.org/2000/svg" xmlns:xlink="http://www.w3.org/1999/xlink" x="0px" y="0px"
	 viewBox="0 0 577.7 442.5" style="enable-background:new 0 0 577.7 442.5;" xml:space="preserve">
<style type="text/css">
	.st0{fill:#EC673C;}
	.st1{fill:#65350E;}
	.st2{fill:#0299C0;}
	.st3{fill:#999A68;}
	.st4{fill:#666735;}
	.st5{fill:#343519;}
	.st6{fill:#FFFFFF;}
	.st7{fill:#343419;}
	.st8{fill:#666634;}
	.st9{fill:#656533;}
	.st10{fill:#656532;}
</style>
<g>
	<path class="st0" d="M305.8,48.4c0.4,10.6-3,20.2-8.7,28.7c-12.3,18.4-14.3,38.1-10.8,59.7c5.2,32.2,8.9,64.6,13.3,96.9
		c1.5,11.3,3,22.6,4.5,33.8c1.4,10.3,6,19.2,12.3,27.4c5.5,7.2,10.1,14.8,11.5,24c3.1,20.2-12,40.3-32.3,42.6
		c-21.8,2.5-41.3-13.3-42.5-34.3c-0.4-6.6,0.1-13.1,2.9-19c7.8-16.1,7.3-32.6,4.7-49.8c-4.7-30.7-8.5-61.5-12.6-92.3
		c-1.8-13.2-3.5-26.5-5.6-39.6c-2-12.6-8.3-23.1-17.2-32.2c-4.7-4.8-9.8-9.3-13.9-14.7c-15.6-20.7-13.7-50.2,4.6-68.7
		c0.8-0.8,1.6-1.6,2.5-2.3c2.9-2.1,4.7-1.6,5.3,2c1,5.9,1.5,12,2.3,18c0.9,6.7,1.8,13.4,2.7,20.1c0.6,4.9,3,8.3,7.7,10.1
		c4.7,1.7,9.4,3.8,14,5.7c3.6,1.5,6.9,0.9,9.9-1.4c4.4-3.3,8.7-6.6,13-10.1c3.3-2.7,4.4-6.2,3.8-10.5c-1.7-12-3-24-5.2-35.9
		c-0.4-2-1.1-4.5,1.1-5.8c2.1-1.3,4.1,0.2,5.9,1.3C296.5,12.3,305.5,27.9,305.8,48.4z"/>
	<path class="st1" d="M80.5,154.1c-8.9-0.2-16.7,0.5-24.4,2.3c-2.2,0.5-3.2,0.3-3.6-2.1c-2.5-14.7-5.1-29.3-7.8-44
		c-0.4-2.4,0.4-3.3,2.6-3.6c6.6-1.1,13.3-2.3,19.9-3.5c2-0.4,3.3,0.1,4,2c0.1,0.3,0.3,0.5,0.4,0.7c2.4,4.1,3.9,9.7,7.4,12
		c3.6,2.3,9.2,1.3,14,1.9c1.7,0.2,2.6-0.4,3.5-1.6c2.7-3.4,5.6-6.7,8.2-10.2c1.3-1.8,2.5-2.1,4.6-1.3c9.9,3.6,19.7,7.2,29.7,10.6
		c2.5,0.9,3.1,2.2,3,4.6c-0.2,4.1,0,8.2-0.1,12.2c-0.1,1.9,0.5,3.2,2.3,4c0.9,0.4,1.8,0.9,2.5,1.6c6.3,6.7,13.3,6.8,20.8,2.2
		c3.9-2.4,6.5-1.5,9.4,2.2c6,7.6,12.4,14.9,18.8,22.2c1.3,1.5,1.6,2.6,0.5,4.4c-2.1,3.3-3.8,6.9-6,10.1c-1.7,2.5-1.7,4.5,0,6.8
		c0.6,0.9,1.3,1.9,1.5,3c1.7,7.9,7.1,10.2,14.5,10.7c7.5,0.4,7.4,0.9,8.7,8.4c1.5,8.4,3,16.9,4.7,25.3c0.6,3,0.5,5.2-2.7,6.3
		c-9.4,3.3-14.4,9.3-13.4,20c0.3,2.9,0.3,4.8,2.8,6.6c3.7,2.8,8.9,5.3,10.2,9.1c1.3,3.8-2.4,8.6-3.9,12.9
		c-2.3,6.5-4.7,12.9-6.9,19.4c-0.7,2.1-1.7,2.9-3.9,2.8c-4.2-0.2-8.4,0-12.7-0.2c-1.9-0.1-3.2,0.4-4.1,2.2c-0.6,1.1-1.2,2.3-2.1,3.2
		c-6.5,6-6.3,12.6-2,19.7c2.6,4.3,1.6,7.3-2.6,10.4c-7.3,5.5-14.2,11.6-21,17.6c-2.2,2-3.7,1.9-6.2,0.5c-4.2-2.5-8.2-6.9-12.8-6.7
		c-4.4,0.2-8.6,3.7-13,5.7c-1.6,0.7-2.3,1.7-2.5,3.4c-0.5,3.6-1.2,7.2-1.7,10.8c-0.7,4.6-2.1,5.7-6.8,5.8c-1.7,0-1.7-0.9-1.9-2
		c-2.7-15.2-5.5-30.4-8.3-45.6c-0.5-2.8,1.5-2.9,3.1-3.5c17.7-6.3,32.2-16.9,43.5-32c41.3-55.4,8.9-135-59.5-145.9
		C87,154.7,83.3,154.4,80.5,154.1z"/>
	<path class="st2" d="M64.9,426.4c-11.8-0.1-16-2.9-18.4-13.6c-3.3-15.1-5.8-30.3-8.6-45.5c-5-27.8-10-55.5-15-83.3
		c-1.7-9.6,0.5-18.8,3-27.8c3.7-13.1,5.8-26.3,3.5-40c-1.6-10-3.3-19.9-5.1-29.9c-4.4-24.7-8.9-49.4-13.4-74.1
		c-0.7-4-2.1-7.5-5.2-10.3c-2.5-2.3-3-5.6-3.4-8.9c-0.8-8.1-1.6-16.2-2.4-24.3c-0.6-6.3,1.7-9.8,7.8-11.5c14.4-4,17.5-2.3,21.3,12.1
		c1.9,7.2,3.7,14.4,5.6,21.6c0.5,1.9,0.7,3.9-0.4,5.3c-3.4,4.7-2.3,9.7-1.4,14.6c5.5,30.8,11.1,61.6,16.6,92.4
		c2.8,15.7,7.5,30.6,17.8,43.1C77.8,259,81.7,274.1,84.3,290c5.1,30.9,10.9,61.6,16.4,92.4c1.4,7.7,3.2,15.4,3.4,23.3
		c0.1,7.1-2.6,11.9-9.6,14.6C84.6,424.1,74.5,426.1,64.9,426.4z"/>
	<path class="st3" d="M398.5,262.7c0.1-1.5-0.9-2.6-1.7-3.8c-23.3-34.3-46.5-68.7-69.8-103c-0.6-0.9-1.3-1.9-1.9-2.8
		c-3.3-5.3-2.5-9.9,2.7-13.5c10.1-6.9,20.2-13.8,30.4-20.6c6-4,10.2-3.1,14.3,2.9c16.9,24.9,33.8,49.8,50.6,74.7
		c5,7.3,9.9,14.7,14.9,22c0.7,1,1.2,2.3,2.5,2.7c2.2,2.2,3.5,5.1,5.6,7.4c4.2,7,9.4,13.4,13.8,20.3c1.5,2.2,3.1,4.3,4.3,6.8
		c2.1,4.5,0.8,10-3.2,12.8c-2.2,1.5-4.3,3.2-6.5,4.6c-7.9,5.3-15.8,10.7-23.7,16c-7.2,4.8-11.4,4.1-16.5-2.8
		C408.8,278.8,403.4,270.9,398.5,262.7z"/>
	<path class="st4" d="M398.5,262.7c4.2,2.5,5.4,7.3,8.2,10.9c3.4,4.3,6.2,9,9.4,13.5c3.4,4.8,7.8,5.6,12.7,2.3
		c7-4.6,13.9-9.4,20.9-14.1c1.4-0.9,2.9-1.7,4.3-2.5c1.5,1.7,0.1,3.5,0.1,5.2c-2.8,5.2-2.9,11.1-4,16.7
		C441,341.4,432,388.3,423,435.2c-1.1,5.8-4.5,8.2-10.3,7.1c-12.7-2.4-25.4-4.9-38.1-7.3c-6.2-1.2-8.5-4.6-7.3-10.9
		c10.1-52.7,20.3-105.3,30.4-158C398,264.9,398.3,263.8,398.5,262.7z"/>
	<path class="st5" d="M454.1,277.9c-1.9-1.7,0.3-3.5-0.1-5.2c1.8-1.4,3.5-2.8,5.3-4.1c5.6-3.8,6.6-8.3,3-14
		c-1.1-1.8-2.2-3.5-3.4-5.3c-1.1-3.1-0.2-6.1,0.2-9.1c0.7-4.8-1-7.3-5.7-8.6c-2.7-0.7-5.5-1-8-2.5c-2.2-2.2-4.1-4.5-4.9-7.6
		c34.7-16.8,69.4-33.7,104.1-50.5c8.6-4.2,12.3-2.9,16.4,5.6c5.1,10.6,10.3,21.2,15.4,31.8c2.4,5.1,1,9.7-3.9,12.1
		C533.2,239.6,493.6,258.7,454.1,277.9z"/>
	<path class="st6" d="M310.6,327.2c0.2,5.9-12.2,18.2-17.8,17.7c-6.6-0.6-13.2-3.1-18-7.4c-4.7-4.2-3.3-11.3-3.9-17.2
		c-0.6-5.4,12.1-17.7,17.8-17c6.6,0.8,13.3,3,18,7.5C311.2,315.2,309.2,322.3,310.6,327.2z"/>
	<path class="st7" d="M416.1,255.6c-0.1-7.6,5.9-13.8,13.3-14c7.8-0.1,14,5.9,14,13.7c0,7.8-6.1,14.1-13.8,14
		C422.2,269.3,416.1,263.2,416.1,255.6z"/>
	<path class="st8" d="M445.6,229.1c3.7-0.3,7.1,1,10.6,1.9c3.8,1,4.8,4.9,3.9,11.7c-0.3,2.2-0.7,4.4-1,6.6
		C454.5,242.6,449.5,236.2,445.6,229.1z"/>
	<path class="st9" d="M429.5,245.8c2,0.1,3.8,0.5,5.3,1.6c1.7,1.3,4.3,2.9,3.5,5.2c-0.5,1.7-3.2,0.7-5,0.7c-3.2,0.1-6.5,0-9.7,0
		c-2.7,0-2.8-1.2-1.7-3.2C423.7,247.1,426.4,246.1,429.5,245.8z"/>
	<path class="st10" d="M430.4,257.6c1.5,0,3.1-0.1,4.6,0c1.2,0.1,2.9-0.7,3.4,0.7c0.6,1.4-0.7,2.6-1.6,3.6
		c-4.2,4.4-12.2,3.8-14.8-1.1c-1-2-1-3.2,1.7-3.2C425.9,257.7,428.1,257.6,430.4,257.6z"/>
</g>
</svg>
